<svg xmlns="http://www.w3.org/2000/svg" version="1.1" xmlns:xlink="http://www.w3.org/1999/xlink" xmlns:svgjs="http://svgjs.dev/svgjs" width="1500" height="1500" viewBox="0 0 1500 1500"><rect width="1500" height="1500" fill="#000000"></rect><g transform="matrix(0.6666666666666666,0,0,0.6666666666666666,249.39393939393938,438.5856950067477)"><svg viewBox="0 0 396 247" data-background-color="#575c5f" preserveAspectRatio="xMidYMid meet" height="935" width="1500" xmlns="http://www.w3.org/2000/svg" xmlns:xlink="http://www.w3.org/1999/xlink"><g id="tight-bounds" transform="matrix(1,0,0,1,0.2400000000000091,-0.09999999999999432)"><svg viewBox="0 0 395.52 247.2" height="247.2" width="395.52"><g><svg></svg></g><g><svg viewBox="0 0 395.52 247.2" height="247.2" width="395.52"><g transform="matrix(1,0,0,1,75.54432,95.41877602667937)"><svg viewBox="0 0 244.43135999999998 56.36244794664126" height="56.36244794664126" width="244.43135999999998"><g><svg viewBox="0 0 244.43135999999998 56.36244794664126" height="56.36244794664126" width="244.43135999999998"><g><svg viewBox="0 0 244.43135999999998 56.36244794664126" height="56.36244794664126" width="244.43135999999998"><g><svg viewBox="0 0 244.43135999999998 56.36244794664126" height="56.36244794664126" width="244.43135999999998"><g id="textblocktransform"><svg viewBox="0 0 244.43135999999998 56.36244794664126" height="56.36244794664126" width="244.43135999999998" id="textblock"><g><svg viewBox="0 0 244.43135999999998 56.36244794664126" height="56.36244794664126" width="244.43135999999998"><g transform="matrix(1,0,0,1,0,0)"><svg width="244.43135999999998" viewBox="-3.85 -31.7 209.88 48.400000000000006" height="56.36244794664126" data-palette-color="#dedad7"><path d="M-2.5 10.2L-2.5 10.2Q-3.15 10.2-3.5 9.53-3.85 8.85-3.85 8.3L-3.85 8.3Q-3.85 8.2-3.83 8.05-3.8 7.9-3.8 7.75L-3.8 7.75Q-3.35 5.2-2.18 3.15-1 1.1 0.6-0.73 2.2-2.55 3.9-4.3L3.9-4.3Q2.95-5.15 2-6.33 1.05-7.5 1.05-8.8L1.05-8.8Q1.05-10.2 2.1-11.05 3.15-11.9 4.75-12.33 6.35-12.75 8.1-12.9 9.85-13.05 11.25-13.05L11.25-13.05Q11.8-13.05 12.28-13.03 12.75-13 13.1-13L13.1-13Q16.2-15.8 19.38-18.53 22.55-21.25 25.75-23.9L25.75-23.9 29.8-27.25Q30.35-27.65 30.85-28.03 31.35-28.4 31.8-28.8L31.8-28.8Q31.95-28.95 32.08-29.1 32.2-29.25 32.4-29.35L32.4-29.35Q32.95-29.85 34.08-30.43 35.2-31 35.95-31L35.95-31Q36.5-31 36.5-30.6L36.5-30.6Q36.5-30.4 36.45-30.35L36.45-30.35Q36.2-29.65 35.75-28.58 35.3-27.5 34.77-26.48 34.25-25.45 33.7-24.95L33.7-24.95Q33.6-24.85 33.48-24.8 33.35-24.75 33.2-24.65L33.2-24.65Q32.9-24.45 32.88-24.25 32.85-24.05 32.7-23.7L32.7-23.7Q32.35-22.9 31.88-22.1 31.4-21.3 30.95-20.5L30.95-20.5Q30-18.65 29.08-16.73 28.15-14.8 27.35-12.8L27.35-12.8 29.25-12.8Q29.75-12.8 30.23-12.8 30.7-12.8 31.15-12.75L31.15-12.75Q31.25-12.75 31.45-12.7 31.65-12.65 31.65-12.5L31.65-12.5Q31.65-12.35 31.35-12.28 31.05-12.2 30.95-12.15L30.95-12.15Q30-12 28.73-11.78 27.45-11.55 26.7-10.85L26.7-10.85Q24.75-5.85 24.75-0.35L24.75-0.35Q24.75-0.15 24.75 0 24.75 0.15 24.8 0.35L24.8 0.35Q25.4 0.4 26 0.43 26.6 0.45 27.25 0.45L27.25 0.45Q27.65 0.45 28.03 0.43 28.4 0.4 28.75 0.4L28.75 0.4Q29.15 0.4 29.15 0.65L29.15 0.65Q29.15 1.05 28.58 1.83 28 2.6 27.65 2.85L27.65 2.85Q27.15 3.2 26.55 3.4 25.95 3.6 25.3 3.6L25.3 3.6Q24 3.6 23.3 3.03 22.6 2.45 22.35 1.1L22.35 1.1Q20.6 0.95 18.25 0.55 15.9 0.15 13.4-0.45 10.9-1.05 8.7-1.88 6.5-2.7 5.05-3.75L5.05-3.75Q3.55-2.15 2.08-0.38 0.6 1.4-0.5 3.35-1.6 5.3-2 7.55L-2 7.55-2 8Q-2 8.35-1.93 8.75-1.85 9.15-1.85 9.55L-1.85 9.55Q-1.85 10.2-2.5 10.2ZM15-12.9L25.7-12.85Q26.1-13.9 26.53-14.95 26.95-16 27.35-17L27.35-17Q27.5-17.35 27.95-18.32 28.4-19.3 29-20.63 29.6-21.95 30.15-23.2 30.7-24.45 31.08-25.38 31.45-26.3 31.45-26.5L31.45-26.5Q31.45-26.55 31.43-26.55 31.4-26.55 31.4-26.55L31.4-26.55Q27.05-23.6 22.9-20.1 18.75-16.6 15-12.9L15-12.9ZM22.3 0.15L22.3 0.15 22.3-0.1Q22.3-3.2 23.33-6.1 24.35-9 25.3-11.8L25.3-11.8Q24.5-11.8 23.68-11.83 22.85-11.85 22.05-11.85L22.05-11.85Q20.7-11.85 18.82-11.75 16.95-11.65 15.18-11.28 13.4-10.9 12.3-10.05L12.3-10.05Q10.7-8.8 9.05-7.48 7.4-6.15 5.95-4.7L5.95-4.7Q7.25-3.55 9.33-2.73 11.4-1.9 13.75-1.3 16.1-0.7 18.35-0.35 20.6 0 22.3 0.15ZM4.8-5.25L4.8-5.25Q6.45-6.9 8.2-8.47 9.95-10.05 11.65-11.65L11.65-11.65Q11.4-11.7 11.13-11.7 10.85-11.7 10.6-11.7L10.6-11.7Q9.85-11.7 8.6-11.53 7.35-11.35 6.13-10.9 4.9-10.45 4.05-9.75 3.2-9.05 3.2-8L3.2-8Q3.2-7.2 3.73-6.5 4.25-5.8 4.8-5.25ZM26.05 2.7L26.05 2.7Q26.5 2.7 26.95 2.25 27.4 1.8 27.4 1.35L27.4 1.35 27.4 1.3Q27.2 1.3 26.93 1.33 26.65 1.35 26.4 1.35L26.4 1.35Q26.05 1.35 25.68 1.33 25.3 1.3 24.9 1.3L24.9 1.3Q25 1.75 25.25 2.23 25.5 2.7 26.05 2.7ZM29.6 0.75L29.6 0.75Q29.25 0.75 29.3 0.5L29.3 0.5Q30.7-1.9 31.87-4.4 33.05-6.9 34.1-9.45L34.1-9.45Q34.1-9.55 34.3-10.03 34.5-10.5 34.5-10.55L34.5-10.55Q34.5-10.7 34.25-10.65 34-10.6 34-10.8L34-10.8Q34-10.9 34.4-11.58 34.8-12.25 35.25-12.98 35.7-13.7 35.8-13.85L35.8-13.85Q36.05-14.15 36.75-14.45 37.45-14.75 37.8-14.75L37.8-14.75Q38.3-14.75 38.3-14.3L38.3-14.3Q38.3-14.15 37.95-13.3 37.6-12.45 37.05-11.3 36.5-10.15 35.95-8.95 35.4-7.75 34.95-6.85 34.5-5.95 34.35-5.65L34.35-5.65Q34.75-6.15 35.67-7.13 36.6-8.1 37.77-9.25 38.95-10.4 40.15-11.48 41.35-12.55 42.32-13.23 43.3-13.9 43.85-13.9L43.85-13.9Q44.25-13.9 44.32-13.6 44.4-13.3 44.4-13.05L44.4-13.05Q44.4-12.4 44.25-11.7 44.1-11 43.9-10.35L43.9-10.35Q43.5-8.85 42.92-6.83 42.35-4.8 42.35-3.3L42.35-3.3Q42.35-2.55 42.62-1.93 42.9-1.3 43.8-1.3L43.8-1.3Q44.5-1.3 45.27-1.75 46.05-2.2 46.72-2.83 47.4-3.45 47.92-3.9 48.45-4.35 48.6-4.35L48.6-4.35Q48.65-4.35 48.65-4.25L48.65-4.25Q48.65-4.1 48.57-3.88 48.5-3.65 48.4-3.55L48.4-3.55Q47.6-2.3 46.07-1.15 44.55 0 43.05 0L43.05 0Q41.5 0 40.72-0.93 39.95-1.85 39.95-3.35L39.95-3.35Q39.95-4.65 40.42-6.25 40.9-7.85 41.25-9.15L41.25-9.15Q41.35-9.55 41.52-10.1 41.7-10.65 41.7-11.05L41.7-11.05Q41.7-11.15 41.65-11.3 41.6-11.45 41.45-11.45L41.45-11.45Q41.2-11.45 40.82-11.18 40.45-10.9 40.25-10.75L40.25-10.75Q39.3-9.95 38.12-8.7 36.95-7.45 35.8-5.98 34.65-4.5 33.7-3.1 32.75-1.7 32.2-0.6L32.2-0.6Q32.1-0.35 31.57-0.03 31.05 0.3 30.47 0.53 29.9 0.75 29.6 0.75ZM60.05 0.4L60.05 0.4Q58.7 0.4 58.27-0.68 57.84-1.75 57.84-2.85L57.84-2.85Q57.84-4.3 58.15-5.75 58.45-7.2 58.55-8.65L58.55-8.65Q57.95-7.9 56.84-6.53 55.75-5.15 54.4-3.68 53.05-2.2 51.75-1.2 50.45-0.2 49.5-0.2L49.5-0.2Q47.65-0.2 47.65-2.15L47.65-2.15Q47.65-3.45 48.17-4.83 48.7-6.2 49.42-7.53 50.15-8.85 50.75-9.95L50.75-9.95 50.65-9.95Q50.34-9.95 50.34-10.2L50.34-10.2Q50.34-10.3 50.37-10.35 50.4-10.4 50.4-10.45L50.4-10.45Q51.09-11.65 51.55-12.53 52-13.4 52.75-13.85 53.5-14.3 55.05-14.3L55.05-14.3Q55.3-14.3 55.3-14L55.3-14Q55.3-13.65 54.75-12.68 54.2-11.7 53.55-10.75 52.9-9.8 52.65-9.4L52.65-9.4Q52.25-8.75 51.65-7.45 51.05-6.15 50.57-4.85 50.09-3.55 50.09-2.8L50.09-2.8Q50.09-2.55 50.17-2.33 50.25-2.1 50.55-2.1L50.55-2.1Q51.05-2.1 51.7-2.58 52.34-3.05 52.7-3.35L52.7-3.35Q54.65-5 56.3-7.08 57.95-9.15 59.3-11.3L59.3-11.3Q59.45-11.6 59.45-11.85L59.45-11.85Q59.59-12.45 59.9-13 60.2-13.55 60.7-13.9L60.7-13.9Q61.09-14.15 61.8-14.3 62.5-14.45 62.9-14.45L62.9-14.45Q63.09-14.45 63.4-14.38 63.7-14.3 63.7-14.05L63.7-14.05Q63.7-13.8 63.27-13.25 62.84-12.7 62.37-12.18 61.9-11.65 61.7-11.3L61.7-11.3Q61.25-10.5 60.9-8.97 60.55-7.45 60.34-5.9 60.15-4.35 60.15-3.35L60.15-3.35Q60.15-2.7 60.3-1.9 60.45-1.1 61.3-1.1L61.3-1.1Q62.15-1.1 63.02-1.78 63.9-2.45 64.55-3.13 65.2-3.8 65.3-3.8L65.3-3.8Q65.34-3.8 65.34-3.7L65.34-3.7Q65.34-3.25 64.84-2.65 64.34-2.05 63.77-1.53 63.2-1 62.9-0.75L62.9-0.75Q62.3-0.3 61.55 0.05 60.8 0.4 60.05 0.4ZM70.99-16.75L70.99-16.75Q70.79-16.75 70.77-17.1 70.74-17.45 70.74-17.55L70.74-17.55Q70.74-17.75 70.82-18.23 70.89-18.7 71.09-18.75L71.09-18.75Q71.79-18.9 72.49-19.05 73.19-19.2 73.89-19.4L73.89-19.4Q73.99-19.4 74.07-19.43 74.14-19.45 74.19-19.45L74.19-19.45Q74.44-19.45 74.44-19.2L74.44-19.2Q74.44-18.7 73.77-18.13 73.09-17.55 72.29-17.15 71.49-16.75 70.99-16.75ZM50.29 16.7L50.29 16.7Q48.89 16.7 47.24 16.2 45.59 15.7 44.39 14.63 43.19 13.55 43.19 11.85L43.19 11.85Q43.19 10.5 44.04 9.3 44.89 8.1 46.19 7.15 47.49 6.2 48.87 5.5 50.24 4.8 51.29 4.35L51.29 4.35Q54.09 3.15 57.22 2.58 60.34 2 63.34 1.8L63.34 1.8Q64.19 0.2 64.82-1.48 65.44-3.15 66.09-4.8L66.09-4.8Q66.64-6.25 67.27-7.75 67.89-9.25 68.29-10.75L68.29-10.75Q68.49-11.45 68.44-11.8 68.39-12.15 68.99-12.8L68.99-12.8Q69.34-13.2 69.92-13.38 70.49-13.55 70.99-13.55L70.99-13.55Q71.14-13.55 71.42-13.5 71.69-13.45 71.69-13.2L71.69-13.2 71.69-13.05Q71.29-12.5 71.04-12.05L71.04-12.05Q70.44-10.85 69.94-9.58 69.44-8.3 68.89-7.1L68.89-7.1Q67.99-4.9 67.09-2.68 66.19-0.45 65.34 1.75L65.34 1.75Q65.69 1.7 66.02 1.7 66.34 1.7 66.69 1.7L66.69 1.7Q66.84 1.7 67.37 1.83 67.89 1.95 67.89 2.2L67.89 2.2Q67.89 2.35 67.24 2.4 66.59 2.45 65.94 2.43 65.29 2.4 65.19 2.4L65.19 2.4 65.04 2.4Q64.34 4.1 63.59 5.8 62.84 7.5 61.94 9.15L61.94 9.15Q60.09 12.4 57.12 14.55 54.14 16.7 50.29 16.7ZM49.74 15.7L49.74 15.7Q52.14 15.7 54.17 14.5 56.19 13.3 57.79 11.43 59.39 9.55 60.44 7.65L60.44 7.65Q61.14 6.35 61.77 5.05 62.39 3.75 63.04 2.45L63.04 2.45Q60.19 2.65 57.24 3.33 54.29 4 51.74 5.3L51.74 5.3Q50.54 5.9 49.02 6.93 47.49 7.95 46.37 9.28 45.24 10.6 45.24 12.2L45.24 12.2Q45.24 13.4 45.94 14.18 46.64 14.95 47.67 15.33 48.69 15.7 49.74 15.7ZM82.04 0.4L82.04 0.4Q80.69 0.4 80.24-0.68 79.79-1.75 79.79-2.85L79.79-2.85Q79.79-4.1 79.99-5.35 80.19-6.6 80.44-7.8L80.44-7.8Q79.94-6.95 78.84-5.6 77.74-4.25 76.39-2.88 75.04-1.5 73.67-0.58 72.29 0.35 71.24 0.35L71.24 0.35Q70.64 0.35 70.47-0.05 70.29-0.45 70.29-0.95L70.29-0.95Q70.29-2 70.79-3.6 71.29-5.2 72.19-6.98 73.09-8.75 74.22-10.25 75.34-11.75 76.56-12.68 77.79-13.6 79.04-13.5L79.04-13.5Q79.59-13.8 80.24-14.05 80.89-14.3 81.54-14.3L81.54-14.3Q82.04-14.3 82.56-14.23 83.09-14.15 83.59-14.05L83.59-14.05Q83.84-14.15 84.14-14.25 84.44-14.35 84.74-14.35L84.74-14.35Q85.29-14.35 85.29-13.85L85.29-13.85Q85.29-13.6 85.02-12.88 84.74-12.15 84.42-11.53 84.09-10.9 83.89-10.8L83.89-10.8Q83.44-9.9 83.04-8.47 82.64-7.05 82.39-5.55 82.14-4.05 82.14-3L82.14-3Q82.14-2.45 82.31-1.78 82.49-1.1 83.24-1.1L83.24-1.1Q84.09-1.1 84.97-1.78 85.84-2.45 86.49-3.13 87.14-3.8 87.24-3.8L87.24-3.8Q87.34-3.8 87.34-3.7L87.34-3.7Q87.34-3.25 86.84-2.65 86.34-2.05 85.74-1.53 85.14-1 84.84-0.75L84.84-0.75Q84.24-0.3 83.52 0.05 82.79 0.4 82.04 0.4ZM72.99-1.35L72.99-1.35Q73.24-1.35 73.59-1.58 73.94-1.8 74.14-1.95L74.14-1.95Q77.14-4.1 78.84-6.9 80.54-9.7 82.14-12.9L82.14-12.9Q81.94-13 81.69-13.05 81.44-13.1 81.19-13.1L81.19-13.1Q80.24-13.1 79.31-12.6 78.39-12.1 77.79-11.4L77.79-11.4Q76.84-10.4 75.86-8.78 74.89-7.15 74.09-5.43 73.29-3.7 72.89-2.35L72.89-2.35Q72.84-2.2 72.79-2.05 72.74-1.9 72.74-1.7L72.74-1.7Q72.74-1.35 72.99-1.35ZM113.74 5.9L113.74 5.9Q111.54 5.9 111.54 3.65L111.54 3.65Q111.54 2.35 112.14 0.63 112.74-1.1 113.61-2.93 114.49-4.75 115.41-6.38 116.34-8 116.99-9.1L116.99-9.1Q116.19-9.35 115.21-9.83 114.24-10.3 113.56-11.03 112.89-11.75 112.89-12.8L112.89-12.8Q112.89-13.55 113.41-14.53 113.94-15.5 114.84-15.5L114.84-15.5Q115.14-15.5 115.14-15.25L115.14-15.25Q115.14-14.9 114.61-14.38 114.09-13.85 114.09-12.95L114.09-12.95Q114.09-12.15 114.64-11.5 115.19-10.85 115.96-10.43 116.74-10 117.39-9.75L117.39-9.75Q118.34-11.25 119.29-12.73 120.24-14.2 121.19-15.65L121.19-15.65Q120.69-15.9 120.14-16.1 119.59-16.3 119.04-16.3L119.04-16.3Q117.84-16.3 117.24-15.63 116.64-14.95 116.31-14.05 115.99-13.15 115.76-12.48 115.54-11.8 115.14-11.8L115.14-11.8Q114.99-11.8 114.99-12.05L114.99-12.05Q114.99-13.3 115.81-14.68 116.64-16.05 117.91-17 119.19-17.95 120.49-17.95L120.49-17.95Q121.54-17.95 122.44-17.5L122.44-17.5Q123.99-19.75 125.56-21.98 127.14-24.2 128.84-26.35L128.84-26.35Q128.79-26.9 129.49-27.75 130.19-28.6 130.54-29.05L130.54-29.05Q128.39-29.55 126.16-29.78 123.94-30 121.69-30L121.69-30Q118.64-30 115.56-29.55 112.49-29.1 109.59-28.1L109.59-28.1Q108.49-27.75 106.99-27 105.49-26.25 104.34-25.18 103.19-24.1 103.19-22.7L103.19-22.7Q103.19-21.6 103.89-20.83 104.59-20.05 105.59-19.55 106.59-19.05 107.44-18.7L107.44-18.7Q107.49-18.65 107.66-18.57 107.84-18.5 107.84-18.4L107.84-18.4Q107.84-18.25 107.54-18.2 107.24-18.15 107.14-18.15L107.14-18.15Q106.89-18.15 106.79-18.2L106.79-18.2Q106.04-18.45 104.94-18.85 103.84-19.25 102.79-19.85 101.74-20.45 101.04-21.25 100.34-22.05 100.34-23.05L100.34-23.05Q100.34-24.15 101.14-25.08 101.94-26 103.14-26.73 104.34-27.45 105.56-27.95 106.79-28.45 107.64-28.75L107.64-28.75Q110.79-29.75 114.06-30.25 117.34-30.75 120.64-30.75L120.64-30.75Q123.24-30.75 125.81-30.45 128.39-30.15 130.89-29.5L130.89-29.5Q131.14-29.8 131.41-30.23 131.69-30.65 131.94-30.9L131.94-30.9Q132.34-31.3 133.19-31.5 134.04-31.7 134.59-31.7L134.59-31.7Q134.79-31.7 135.19-31.63 135.59-31.55 135.59-31.25L135.59-31.25Q135.59-31.15 135.11-30.58 134.64-30 134.14-29.45 133.64-28.9 133.49-28.7L133.49-28.7Q134.74-28.25 136.16-27.53 137.59-26.8 138.89-25.8 140.19-24.8 141.01-23.53 141.84-22.25 141.84-20.7L141.84-20.7Q141.84-18.75 140.56-17.1 139.29-15.45 137.36-14.1 135.44-12.75 133.39-11.78 131.34-10.8 129.74-10.25L129.74-10.25Q130.64-9.15 132.11-7.28 133.59-5.4 135.21-3.38 136.84-1.35 138.39 0.3 139.94 1.95 140.99 2.65L140.99 2.65Q141.24 2.85 141.56 3 141.89 3.15 142.24 3.15L142.24 3.15Q142.99 3.15 143.24 2.5 143.49 1.85 143.51 1.05 143.54 0.25 143.54-0.2L143.54-0.2Q143.54-0.45 143.79-0.45L143.79-0.45Q143.99-0.45 144.06 0 144.14 0.45 144.16 0.95 144.19 1.45 144.19 1.65L144.19 1.65Q144.19 2.7 143.74 3.6 143.29 4.5 142.04 4.5L142.04 4.5Q140.69 4.5 139.06 3.4 137.44 2.3 135.74 0.55 134.04-1.2 132.44-3.15 130.84-5.1 129.56-6.83 128.29-8.55 127.49-9.55L127.49-9.55Q125.94-9.15 124.34-8.85 122.74-8.55 121.14-8.55L121.14-8.55Q120.64-8.55 120.16-8.58 119.69-8.6 119.19-8.65L119.19-8.65Q118.59-7.55 117.81-6 117.04-4.45 116.31-2.73 115.59-1 115.11 0.63 114.64 2.25 114.64 3.5L114.64 3.5Q114.64 3.95 114.79 4.45 114.94 4.95 115.49 4.95L115.49 4.95Q115.94 4.95 116.36 4.83 116.79 4.7 117.19 4.7L117.19 4.7Q117.24 4.7 117.41 4.7 117.59 4.7 117.59 4.8L117.59 4.8Q117.59 5 116.76 5.28 115.94 5.55 114.99 5.73 114.04 5.9 113.74 5.9ZM128.94-11.25L128.94-11.25Q130.34-11.85 132.24-12.88 134.14-13.9 135.94-15.28 137.74-16.65 138.94-18.28 140.14-19.9 140.14-21.7L140.14-21.7Q140.14-23.45 138.99-24.75 137.84-26.05 136.21-26.93 134.59-27.8 133.14-28.3L133.14-28.3Q130.69-25.45 128.41-22.48 126.14-19.5 124.04-16.4L124.04-16.4Q125.39-15.25 126.59-13.93 127.79-12.6 128.94-11.25ZM120.84-9.15L120.84-9.15Q122.29-9.15 123.89-9.55 125.49-9.95 126.79-10.4L126.79-10.4Q125.84-11.55 124.89-12.6 123.94-13.65 122.79-14.55L122.79-14.55Q121.94-13.25 121.11-11.93 120.29-10.6 119.49-9.25L119.49-9.25Q119.84-9.2 120.16-9.18 120.49-9.15 120.84-9.15ZM152.08 0.4L152.08 0.4Q150.73 0.4 150.28-0.68 149.83-1.75 149.83-2.85L149.83-2.85Q149.83-4.1 150.03-5.35 150.23-6.6 150.48-7.8L150.48-7.8Q149.98-6.95 148.88-5.6 147.78-4.25 146.43-2.88 145.08-1.5 143.71-0.58 142.33 0.35 141.28 0.35L141.28 0.35Q140.68 0.35 140.51-0.05 140.33-0.45 140.33-0.95L140.33-0.95Q140.33-2 140.83-3.6 141.33-5.2 142.23-6.98 143.13-8.75 144.26-10.25 145.38-11.75 146.61-12.68 147.83-13.6 149.08-13.5L149.08-13.5Q149.63-13.8 150.28-14.05 150.93-14.3 151.58-14.3L151.58-14.3Q152.08-14.3 152.61-14.23 153.13-14.15 153.63-14.05L153.63-14.05Q153.88-14.15 154.18-14.25 154.48-14.35 154.78-14.35L154.78-14.35Q155.33-14.35 155.33-13.85L155.33-13.85Q155.33-13.6 155.06-12.88 154.78-12.15 154.46-11.53 154.13-10.9 153.93-10.8L153.93-10.8Q153.48-9.9 153.08-8.47 152.68-7.05 152.43-5.55 152.18-4.05 152.18-3L152.18-3Q152.18-2.45 152.36-1.78 152.53-1.1 153.28-1.1L153.28-1.1Q154.13-1.1 155.01-1.78 155.88-2.45 156.53-3.13 157.18-3.8 157.28-3.8L157.28-3.8Q157.38-3.8 157.38-3.7L157.38-3.7Q157.38-3.25 156.88-2.65 156.38-2.05 155.78-1.53 155.18-1 154.88-0.75L154.88-0.75Q154.28-0.3 153.56 0.05 152.83 0.4 152.08 0.4ZM143.03-1.35L143.03-1.35Q143.28-1.35 143.63-1.58 143.98-1.8 144.18-1.95L144.18-1.95Q147.18-4.1 148.88-6.9 150.58-9.7 152.18-12.9L152.18-12.9Q151.98-13 151.73-13.05 151.48-13.1 151.23-13.1L151.23-13.1Q150.28-13.1 149.36-12.6 148.43-12.1 147.83-11.4L147.83-11.4Q146.88-10.4 145.91-8.78 144.93-7.15 144.13-5.43 143.33-3.7 142.93-2.35L142.93-2.35Q142.88-2.2 142.83-2.05 142.78-1.9 142.78-1.7L142.78-1.7Q142.78-1.35 143.03-1.35ZM155.83 1.1L155.83 1.1Q155.78 1.1 155.78 1.07 155.78 1.05 155.78 1.05L155.78 1.05Q155.78 0.8 156.16-0.05 156.53-0.9 156.63-1.1L156.63-1.1Q158.48-5.25 160.18-9.47 161.88-13.7 163.85-17.82 165.83-21.95 168.38-25.7L168.38-25.7Q168.28-26.1 168.28-26.4L168.28-26.4Q168.28-26.65 168.33-26.8L168.33-26.8 170.18-29.65Q170.48-29.95 171.2-30.1 171.93-30.25 172.33-30.25L172.33-30.25Q172.53-30.25 173.08-30.18 173.63-30.1 173.63-29.75L173.63-29.75Q173.63-29.6 173.58-29.6L173.58-29.6Q172.78-28.5 171.98-27.35 171.18-26.2 170.38-25.05L170.38-25.05Q163.63-14.95 159.58-3.65L159.58-3.65Q161.83-5.8 163.83-8.2 165.83-10.6 168.03-12.75L168.03-12.75Q168.13-12.85 168.25-12.88 168.38-12.9 168.48-12.95L168.48-12.95Q168.73-13.1 169.1-13.35 169.48-13.6 169.73-13.6L169.73-13.6Q169.73-13.6 169.73-13.55L169.73-13.55 169.78-13.55Q169.83-13.6 170.03-13.6L170.03-13.6Q170.28-13.6 170.33-13.3 170.38-13 170.38-12.8L170.38-12.8Q170.38-12.3 170.06-11.25 169.73-10.2 169.28-9.95L169.28-9.95Q168.78-8.2 168.35-6.78 167.93-5.35 167.93-3.4L167.93-3.4Q167.93-2.9 168.08-2.1 168.23-1.3 168.98-1.3L168.98-1.3Q169.68-1.3 170.43-1.75 171.18-2.2 171.88-2.83 172.58-3.45 173.08-3.9 173.58-4.35 173.73-4.35L173.73-4.35Q173.83-4.35 173.83-4.2L173.83-4.2Q173.83-4.05 173.73-3.85 173.63-3.65 173.53-3.55L173.53-3.55Q172.73-2.3 171.23-1.15 169.73 0 168.18 0L168.18 0Q166.68 0 166.18-1.03 165.68-2.05 165.68-3.3L165.68-3.3Q165.68-5.15 166.25-7.2 166.83-9.25 167.48-10.95L167.48-10.95Q167.18-10.65 166.28-9.65 165.38-8.65 164.18-7.35 162.98-6.05 161.83-4.78 160.68-3.5 159.91-2.6 159.13-1.7 159.08-1.5L159.08-1.5Q159.03-1.2 159.03-0.88 159.03-0.55 158.83-0.25L158.83-0.25Q158.73-0.1 158.08 0.23 157.43 0.55 156.75 0.83 156.08 1.1 155.83 1.1ZM184.98 0.4L184.98 0.4Q183.63 0.4 183.2-0.68 182.78-1.75 182.78-2.85L182.78-2.85Q182.78-4.3 183.08-5.75 183.38-7.2 183.48-8.65L183.48-8.65Q182.88-7.9 181.78-6.53 180.68-5.15 179.33-3.68 177.98-2.2 176.68-1.2 175.38-0.2 174.43-0.2L174.43-0.2Q172.58-0.2 172.58-2.15L172.58-2.15Q172.58-3.45 173.1-4.83 173.63-6.2 174.35-7.53 175.08-8.85 175.68-9.95L175.68-9.95 175.58-9.95Q175.28-9.95 175.28-10.2L175.28-10.2Q175.28-10.3 175.3-10.35 175.33-10.4 175.33-10.45L175.33-10.45Q176.03-11.65 176.48-12.53 176.93-13.4 177.68-13.85 178.43-14.3 179.98-14.3L179.98-14.3Q180.23-14.3 180.23-14L180.23-14Q180.23-13.65 179.68-12.68 179.13-11.7 178.48-10.75 177.83-9.8 177.58-9.4L177.58-9.4Q177.18-8.75 176.58-7.45 175.98-6.15 175.5-4.85 175.03-3.55 175.03-2.8L175.03-2.8Q175.03-2.55 175.1-2.33 175.18-2.1 175.48-2.1L175.48-2.1Q175.98-2.1 176.63-2.58 177.28-3.05 177.63-3.35L177.63-3.35Q179.58-5 181.23-7.08 182.88-9.15 184.23-11.3L184.23-11.3Q184.38-11.6 184.38-11.85L184.38-11.85Q184.53-12.45 184.83-13 185.13-13.55 185.63-13.9L185.63-13.9Q186.03-14.15 186.73-14.3 187.43-14.45 187.83-14.45L187.83-14.45Q188.03-14.45 188.33-14.38 188.63-14.3 188.63-14.05L188.63-14.05Q188.63-13.8 188.2-13.25 187.78-12.7 187.3-12.18 186.83-11.65 186.63-11.3L186.63-11.3Q186.18-10.5 185.83-8.97 185.48-7.45 185.28-5.9 185.08-4.35 185.08-3.35L185.08-3.35Q185.08-2.7 185.23-1.9 185.38-1.1 186.23-1.1L186.23-1.1Q187.08-1.1 187.95-1.78 188.83-2.45 189.48-3.13 190.13-3.8 190.23-3.8L190.23-3.8Q190.28-3.8 190.28-3.7L190.28-3.7Q190.28-3.25 189.78-2.65 189.28-2.05 188.7-1.53 188.13-1 187.83-0.75L187.83-0.75Q187.23-0.3 186.48 0.05 185.73 0.4 184.98 0.4ZM189.78 0.1L189.78 0.1Q188.38 0.1 188.38-1.35L188.38-1.35Q188.38-2 188.6-2.75 188.83-3.5 189.03-4.1L189.03-4.1Q190.38-7.6 192.33-11.43 194.28-15.25 196.47-18.93 198.68-22.6 200.78-25.7L200.78-25.7Q200.68-26.1 200.68-26.4L200.68-26.4Q200.68-26.65 200.72-26.8L200.72-26.8Q200.88-27 201.28-27.65 201.68-28.3 202.1-28.93 202.53-29.55 202.63-29.65L202.63-29.65Q202.88-29.95 203.6-30.1 204.33-30.25 204.72-30.25L204.72-30.25Q204.97-30.25 205.5-30.18 206.03-30.1 206.03-29.75L206.03-29.75Q206.03-29.6 205.97-29.6L205.97-29.6Q205.18-28.45 204.35-27.28 203.53-26.1 202.72-24.95L202.72-24.95Q199.83-20.6 197.3-16.07 194.78-11.55 192.47-6.9L192.47-6.9Q192.03-6.05 191.5-4.75 190.97-3.45 190.97-2.5L190.97-2.5Q190.97-1.55 191.72-1.55L191.72-1.55Q192.38-1.55 193.18-2 193.97-2.45 194.7-3.03 195.43-3.6 195.95-4.05 196.47-4.5 196.63-4.5L196.63-4.5Q196.72-4.5 196.72-4.3L196.72-4.3Q196.72-4.1 196.55-3.78 196.38-3.45 196.22-3.25L196.22-3.25Q195.33-2.2 193.68-1.25 192.03-0.3 190.72 0L190.72 0Q190.53 0.05 190.28 0.08 190.03 0.1 189.78 0.1Z" opacity="1" transform="matrix(1,0,0,1,0,0)" fill="#ffffff" class="wordmark-text-0" data-fill-palette-color="primary" id="text-0"></path></svg></g></svg></g></svg></g></svg></g></svg></g></svg></g></svg></g><path d="M199.619 89.419L199.619 30.04 386.739 30.04 386.739 217.16 199.619 217.16 199.619 157.781 204.702 157.781 204.702 212.077 381.656 212.077 381.656 35.123 204.702 35.123 204.702 89.419Z" fill="#ffffff" stroke="transparent" data-fill-palette-color="tertiary"></path></svg></g><defs></defs></svg><rect width="395.52" height="247.2" fill="none" stroke="none" visibility="hidden"></rect></g></svg></g></svg>